<svg id="Calque_1" xmlns="http://www.w3.org/2000/svg" viewBox="0 0 135 63"><style>.st0{fill:#2b2c2c}.st1{fill:#d19766}</style><path class="st0" d="M0 17.3h4.5v3.9H0v-3.9zm.1 5.9h4.4v16.3H.1V23.2zm8.2 0h4.2v2.2c.6-1 1.4-1.7 2.3-2.1.9-.4 1.8-.7 2.8-.7 1.8 0 3.2.5 4.1 1.4.9 1 1.3 2.5 1.3 4.6v10.8h-4.4v-10c0-1.1-.2-1.9-.7-2.3-.4-.4-1-.6-1.7-.6-.6 0-1 .1-1.5.2-.4.2-.8.4-1.1.7-.3.3-.5.6-.7 1-.2.4-.3.8-.3 1.3v9.8H8.3V23.2zm28.6 11.1c.1 1 .5 1.6 1.2 1.9.6.3 1.4.4 2.2.4 1 0 1.8-.1 2.2-.4.4-.3.7-.7.7-1.3 0-.4-.1-.8-.4-1.1-.3-.3-.8-.5-1.6-.7l-2.2-.4c-2-.3-3.4-.8-4.4-1.6-1-.8-1.5-1.9-1.5-3.4 0-.8.2-1.5.5-2.1s.8-1.2 1.4-1.6c.6-.4 1.4-.8 2.2-1 .9-.2 1.8-.4 2.9-.4 1.3 0 2.4.1 3.2.4.9.3 1.6.6 2.1 1 .6.4 1 1 1.2 1.6.3.6.5 1.2.6 1.9l-3.9.5c-.2-.7-.5-1.3-1-1.7-.3-.1-1.1-.3-2.1-.3-.6 0-1.1 0-1.5.1-.4.1-.7.2-.9.4-.2.1-.4.3-.5.5-.1.2-.1.4-.1.5 0 .5.2.9.5 1.1.3.2 1 .4 1.9.6l2.1.3c1.1.2 2.1.4 2.8.7.7.3 1.3.6 1.8 1.1.4.4.8.9.9 1.5.2.6.3 1.3.3 2 0 1.5-.6 2.8-1.7 3.7-1.2.9-3 1.4-5.4 1.4-1 0-1.9-.1-2.8-.3-.9-.2-1.7-.5-2.4-.9s-1.3-1-1.7-1.7c-.4-.7-.7-1.6-.8-2.7h4.2zm13.5-17h4.5v3.9h-4.5v-3.9zm.1 5.9h4.4v16.3h-4.4V23.2zm9.2 3.4h-2.6v-3.4h2.6v-4.3h4.4v4.3h3.7v3.4h-3.7v7.5c0 .9.2 1.4.5 1.7.4.3.8.5 1.4.5h.9c.3 0 .6-.1.9-.2l.6 3.2c-.6.2-1.2.3-1.8.4-.6.1-1.1.1-1.6.1-1.8 0-3.1-.4-4-1.3-.9-.9-1.3-2.3-1.3-4.3v-7.6zm10.7-3.4h4.4v10.2c0 1.2.2 1.9.6 2.4.4.4 1 .6 1.7.6.6 0 1-.1 1.4-.2.4-.2.7-.4 1-.7.3-.3.6-.6.8-1 .2-.4.3-.8.3-1.3v-9.8H85v16.3h-4.2v-2.2c-.7 1-1.4 1.7-2.3 2.1-.8.4-1.7.7-2.7.7-1.8 0-3.2-.5-4.1-1.4-.9-1-1.3-2.5-1.3-4.6V23.2z"/><path class="st1" d="M77.2 56.7V58l1.2.2v.4c-.3.2-.6.3-1 .4-.4.1-.7.2-1 .3H76c-.1-.3-.2-.6-.2-.9 0-.3 0-.7-.1-1.1h-.1c0 .2-.1.5-.3.7-.1.2-.3.5-.5.6-.2.2-.5.3-.8.5-.3.1-.6.2-1 .2-.7 0-1.3-.2-1.8-.7-.5-.4-.7-1-.7-1.7 0-.5.1-1 .3-1.3.2-.3.5-.6 1-.8.4-.2 1-.3 1.6-.4.6-.1 1.4-.2 2.2-.2 0-.5.1-1 0-1.4 0-.4-.1-.8-.2-1-.1-.3-.3-.5-.5-.7-.2-.2-.5-.2-.9-.2h-.6c-.2 0-.4.1-.6.2l-.7 1.9h-.5c-.1-.4-.2-.7-.3-1.1-.1-.4-.1-.8-.2-1.1.4-.3.9-.5 1.5-.6.6-.2 1.2-.2 1.8-.2.6 0 1.1.1 1.4.3.4.2.6.4.8.7s.3.6.4.9c.1.3.1.7.1 1V55c.1.4.1 1.1.1 1.7zm-3.5 1.4c.3 0 .6-.1.8-.2.2-.1.4-.3.6-.4.2-.2.3-.3.4-.5.1-.2.2-.3.2-.4v-1.9c-.7 0-1.2 0-1.7.1-.4.1-.8.2-1 .3-.2.2-.4.3-.5.6-.1.2-.1.5-.1.8 0 .5.1.9.4 1.2.1.3.5.4.9.4zm9.5-6.7c-.1.1-.3.2-.5.4s-.4.5-.5 1v5.3c.2 0 .5.1.7.1.2.1.5.2.7.3v.5h-4.2v-.4l.6-.3c.2-.1.4-.1.6-.2v-7l-1.2-.1v-.5c.4-.2.8-.3 1.2-.4.4-.1.8-.2 1.2-.2h.4v1.9h.1c.1-.2.3-.5.5-.7.2-.2.4-.4.7-.6.3-.2.5-.3.8-.4.3-.1.6-.1.9-.1.1.2.2.3.2.5.1.2.1.4.2.6v.5h-2.4zm2.7-.8c.4-.3.9-.5 1.4-.6v-1.5c.2-.1.3-.2.5-.3l.6-.3h.6v2.3h2.7v.8H89v5.1c0 .7.1 1.2.3 1.5.2.3.6.4 1 .4h.8c.3 0 .6-.1.8-.2l.1.3c-.1.1-.2.2-.4.3l-.6.3c-.2.1-.5.2-.7.3-.3.1-.5.1-.8.1-.7 0-1.3-.2-1.6-.6-.4-.4-.6-1-.6-1.9V51h-1.4v-.4zM97.5 57c0-.3-.1-.6-.3-.8-.2-.2-.5-.4-.8-.6-.3-.2-.7-.4-1-.6-.4-.2-.7-.4-1-.7-.3-.3-.6-.5-.8-.9-.2-.3-.3-.7-.3-1.2 0-.3.1-.6.2-.9.1-.3.3-.5.6-.7.2-.2.5-.3.9-.5s.7-.2 1.1-.2c.6 0 1.2 0 1.6.1l1.2.3c0 .4-.1.8-.2 1.1l-.3 1.2H98l-.7-1.8c-.1-.1-.3-.1-.5-.1h-.6c-.2 0-.4 0-.6.1s-.3.2-.4.3c-.1.1-.2.3-.3.4-.1.2-.1.3-.1.5 0 .3.1.6.3.8.2.2.5.4.8.6.3.2.7.4 1 .6.4.2.7.4 1 .6.3.2.6.5.8.8.2.3.3.7.3 1.1 0 .4-.1.8-.3 1.1-.2.3-.4.6-.7.8-.3.2-.7.4-1 .5-.4.1-.8.2-1.3.2s-1 0-1.4-.1c-.4-.1-.9-.2-1.3-.4 0-.4.1-.8.2-1.2.1-.4.2-.8.3-1.1h.5l.8 1.9c.1.1.3.1.5.2h.5c.5 0 .9-.1 1.3-.4.2-.3.4-.6.4-1zm6.9 5.5h-3.9v-.4c.4-.2.8-.3 1.2-.4V51.1l-1.2-.1v-.5c.4-.2.8-.3 1.2-.4.4-.1.8-.2 1.2-.2h.4v2c.2-.6.6-1.1 1-1.4.4-.4 1-.5 1.7-.5 1.1 0 1.9.3 2.5 1 .6.7.9 1.8.9 3.4 0 .7-.1 1.4-.3 2-.2.6-.5 1.1-.8 1.5-.4.4-.8.7-1.3 1-.5.2-1.1.3-1.7.3-.4 0-.8 0-1-.1-.2-.1-.5-.1-.8-.3v2.8c.2 0 .4.1.6.1l.6.3v.5zm1-11.5c-.6 0-1 .2-1.4.6-.3.4-.6.9-.7 1.5v5c.2.1.5.2.7.3.3.1.6.1 1 .1s.7-.1 1.1-.3c.3-.2.6-.5.8-.9.2-.4.4-.8.5-1.3.1-.5.2-1 .2-1.6 0-.5 0-.9-.1-1.3s-.2-.8-.4-1.1c-.2-.3-.4-.5-.7-.7-.3-.2-.6-.3-1-.3zm11.9 5.7V58l1.2.2v.4c-.3.2-.6.3-1 .4-.4.1-.7.2-1 .3h-.4c-.1-.3-.2-.6-.2-.9 0-.3 0-.7-.1-1.1h-.1c0 .2-.1.5-.3.7-.1.2-.3.5-.5.6-.2.2-.5.3-.8.5-.3.1-.6.2-1 .2-.7 0-1.3-.2-1.8-.7-.5-.4-.7-1-.7-1.7 0-.5.1-1 .3-1.3.2-.3.5-.6 1-.8.4-.2 1-.3 1.6-.4.6-.1 1.4-.2 2.2-.2 0-.5.1-1 0-1.4 0-.4-.1-.8-.2-1-.1-.3-.3-.5-.5-.7-.2-.2-.5-.2-.9-.2h-.6c-.2 0-.4.1-.6.2l-.8 2.1h-.5c-.1-.4-.2-.7-.3-1.1-.1-.4-.1-.8-.2-1.1.4-.3.9-.5 1.5-.6.6-.2 1.2-.2 1.8-.2.6 0 1.1.1 1.4.3.4.2.6.4.8.7s.3.6.4.9c.1.3.1.7.1 1v2.1c.2.2.2.9.2 1.5zm-3.5 1.4c.3 0 .6-.1.8-.2.2-.1.4-.3.6-.4.2-.2.3-.3.4-.5.1-.2.2-.3.2-.4v-1.9c-.7 0-1.2 0-1.7.1-.4.1-.8.2-1 .3-.2.2-.4.3-.5.6-.1.2-.1.5-.1.8 0 .5.1.9.4 1.2.1.3.5.4.9.4zm12.7-.4c-.2.4-.6.8-1 1-.5.3-1 .4-1.7.4s-1.3-.1-1.8-.3c-.5-.2-.9-.5-1.3-.9-.3-.4-.6-.9-.8-1.5-.2-.6-.3-1.2-.3-1.9 0-1.5.4-2.7 1.1-3.5.7-.8 1.7-1.2 3-1.2.6 0 1.1 0 1.6.1s.8.2 1.2.4c0 .4-.1.8-.2 1.3s-.2.9-.4 1.2h-.5l-.7-2.1c-.1-.1-.2-.1-.3-.1h-.5c-.8 0-1.4.3-1.9.9s-.7 1.6-.7 3c0 .4.1.9.2 1.3s.3.8.6 1.1c.3.3.6.6 1 .8.4.2.8.3 1.3.3.4 0 .8-.1 1.1-.2.3-.1.6-.3.8-.4l.2.3zm8.3 0c-.1.2-.2.4-.4.6-.2.2-.4.3-.7.5-.3.1-.5.2-.9.3-.3.1-.6.1-.9.1-.7 0-1.3-.1-1.8-.3-.5-.2-1-.5-1.3-.9-.4-.4-.6-.9-.8-1.5-.2-.6-.3-1.2-.3-1.9 0-1.5.3-2.7 1-3.5.7-.8 1.7-1.2 3-1.2.4 0 .8.1 1.2.2.4.1.8.3 1.1.6.3.3.6.6.8 1s.3 1 .3 1.6v.6c0 .2-.1.4-.1.7h-5.5c0 .5.1 1 .2 1.4.1.4.3.8.6 1.1.2.3.6.6.9.8.4.2.8.3 1.3.3.4 0 .8-.1 1.3-.2.4-.1.7-.3 1-.5v.2zm-3.2-7c-.7 0-1.2.2-1.5.7-.4.5-.6 1.3-.6 2.4h3.9v-.6c0-.8-.1-1.4-.4-1.8-.4-.5-.8-.7-1.4-.7zM83.5 0h1.4v16.5h-1.4zm8.2 23.3h16.5v1.4H91.7z"/></svg>